<mxfile host="app.diagrams.net" agent="Mozilla/5.0 (Windows NT 10.0; Win64; x64) AppleWebKit/537.36 (KHTML, like Gecko) Chrome/132.0.0.0 Safari/537.36 Edg/132.0.0.0" version="26.0.11">
  <diagram name="Page-1" id="1Pl1hgx2iPx2ZDBzJfBI">
    <mxGraphModel dx="1042" dy="613" grid="1" gridSize="10" guides="1" tooltips="1" connect="1" arrows="1" fold="1" page="1" pageScale="1" pageWidth="827" pageHeight="1169" math="0" shadow="0">
      <root>
        <mxCell id="0" />
        <mxCell id="1" parent="0" />
        <mxCell id="rXCvSqQMn9d65g6Ew-_7-1" value="Logo" style="rounded=0;whiteSpace=wrap;html=1;" vertex="1" parent="1">
          <mxGeometry x="40" y="10" width="120" height="70" as="geometry" />
        </mxCell>
        <mxCell id="rXCvSqQMn9d65g6Ew-_7-3" value="About me" style="rounded=0;whiteSpace=wrap;html=1;" vertex="1" parent="1">
          <mxGeometry x="200" y="20" width="120" height="40" as="geometry" />
        </mxCell>
        <mxCell id="rXCvSqQMn9d65g6Ew-_7-4" value="Educations" style="rounded=0;whiteSpace=wrap;html=1;" vertex="1" parent="1">
          <mxGeometry x="360" y="20" width="120" height="40" as="geometry" />
        </mxCell>
        <mxCell id="rXCvSqQMn9d65g6Ew-_7-5" value="Career" style="rounded=0;whiteSpace=wrap;html=1;" vertex="1" parent="1">
          <mxGeometry x="520" y="20" width="120" height="40" as="geometry" />
        </mxCell>
        <mxCell id="rXCvSqQMn9d65g6Ew-_7-7" value="Hobbies" style="rounded=0;whiteSpace=wrap;html=1;" vertex="1" parent="1">
          <mxGeometry x="680" y="20" width="120" height="40" as="geometry" />
        </mxCell>
        <mxCell id="rXCvSqQMn9d65g6Ew-_7-8" value="" style="rounded=0;whiteSpace=wrap;html=1;" vertex="1" parent="1">
          <mxGeometry x="40" y="90" width="760" height="360" as="geometry" />
        </mxCell>
        <mxCell id="rXCvSqQMn9d65g6Ew-_7-9" value="" style="rounded=0;whiteSpace=wrap;html=1;" vertex="1" parent="1">
          <mxGeometry x="50" y="120" width="190" height="150" as="geometry" />
        </mxCell>
        <mxCell id="rXCvSqQMn9d65g6Ew-_7-10" value="" style="rounded=0;whiteSpace=wrap;html=1;" vertex="1" parent="1">
          <mxGeometry x="50" y="280" width="190" height="150" as="geometry" />
        </mxCell>
        <mxCell id="rXCvSqQMn9d65g6Ew-_7-11" value="" style="endArrow=none;html=1;rounded=0;entryX=1;entryY=0;entryDx=0;entryDy=0;" edge="1" parent="1" target="rXCvSqQMn9d65g6Ew-_7-1">
          <mxGeometry width="50" height="50" relative="1" as="geometry">
            <mxPoint x="40" y="80" as="sourcePoint" />
            <mxPoint x="90" y="30" as="targetPoint" />
          </mxGeometry>
        </mxCell>
        <mxCell id="rXCvSqQMn9d65g6Ew-_7-13" value="" style="endArrow=none;html=1;rounded=0;entryX=1;entryY=0;entryDx=0;entryDy=0;" edge="1" parent="1" target="rXCvSqQMn9d65g6Ew-_7-9">
          <mxGeometry width="50" height="50" relative="1" as="geometry">
            <mxPoint x="50" y="260" as="sourcePoint" />
            <mxPoint x="100" y="210" as="targetPoint" />
          </mxGeometry>
        </mxCell>
        <mxCell id="rXCvSqQMn9d65g6Ew-_7-14" value="" style="endArrow=none;html=1;rounded=0;entryX=1;entryY=0;entryDx=0;entryDy=0;" edge="1" parent="1" target="rXCvSqQMn9d65g6Ew-_7-10">
          <mxGeometry width="50" height="50" relative="1" as="geometry">
            <mxPoint x="50" y="430" as="sourcePoint" />
            <mxPoint x="100" y="380" as="targetPoint" />
          </mxGeometry>
        </mxCell>
        <mxCell id="rXCvSqQMn9d65g6Ew-_7-15" value="" style="endArrow=none;html=1;rounded=0;entryX=1;entryY=1;entryDx=0;entryDy=0;" edge="1" parent="1" source="rXCvSqQMn9d65g6Ew-_7-8" target="rXCvSqQMn9d65g6Ew-_7-9">
          <mxGeometry width="50" height="50" relative="1" as="geometry">
            <mxPoint x="390" y="340" as="sourcePoint" />
            <mxPoint x="440" y="290" as="targetPoint" />
            <Array as="points">
              <mxPoint x="50" y="110" />
            </Array>
          </mxGeometry>
        </mxCell>
        <mxCell id="rXCvSqQMn9d65g6Ew-_7-16" value="" style="endArrow=none;html=1;rounded=0;entryX=1;entryY=1;entryDx=0;entryDy=0;" edge="1" parent="1" source="rXCvSqQMn9d65g6Ew-_7-8" target="rXCvSqQMn9d65g6Ew-_7-10">
          <mxGeometry width="50" height="50" relative="1" as="geometry">
            <mxPoint x="390" y="340" as="sourcePoint" />
            <mxPoint x="440" y="290" as="targetPoint" />
            <Array as="points">
              <mxPoint x="50" y="280" />
            </Array>
          </mxGeometry>
        </mxCell>
        <mxCell id="rXCvSqQMn9d65g6Ew-_7-17" value="" style="rounded=0;whiteSpace=wrap;html=1;" vertex="1" parent="1">
          <mxGeometry x="250" y="120" width="540" height="150" as="geometry" />
        </mxCell>
        <mxCell id="rXCvSqQMn9d65g6Ew-_7-18" value="Text" style="text;html=1;align=center;verticalAlign=middle;whiteSpace=wrap;rounded=0;" vertex="1" parent="1">
          <mxGeometry x="380" y="300" width="60" height="30" as="geometry" />
        </mxCell>
        <mxCell id="rXCvSqQMn9d65g6Ew-_7-20" value="When was I born" style="rounded=0;whiteSpace=wrap;html=1;" vertex="1" parent="1">
          <mxGeometry x="260" y="130" width="520" height="60" as="geometry" />
        </mxCell>
        <mxCell id="rXCvSqQMn9d65g6Ew-_7-21" value="" style="rounded=0;whiteSpace=wrap;html=1;" vertex="1" parent="1">
          <mxGeometry x="260" y="360" width="500" height="60" as="geometry" />
        </mxCell>
        <mxCell id="rXCvSqQMn9d65g6Ew-_7-22" value="What is my origin country" style="rounded=0;whiteSpace=wrap;html=1;" vertex="1" parent="1">
          <mxGeometry x="260" y="200" width="520" height="60" as="geometry" />
        </mxCell>
        <mxCell id="rXCvSqQMn9d65g6Ew-_7-23" value="" style="rounded=0;whiteSpace=wrap;html=1;" vertex="1" parent="1">
          <mxGeometry x="250" y="280" width="540" height="150" as="geometry" />
        </mxCell>
        <mxCell id="rXCvSqQMn9d65g6Ew-_7-24" value="" style="rounded=0;whiteSpace=wrap;html=1;" vertex="1" parent="1">
          <mxGeometry x="260" y="290" width="500" height="60" as="geometry" />
        </mxCell>
        <mxCell id="rXCvSqQMn9d65g6Ew-_7-25" value="" style="rounded=0;whiteSpace=wrap;html=1;" vertex="1" parent="1">
          <mxGeometry x="260" y="290" width="520" height="60" as="geometry" />
        </mxCell>
        <mxCell id="rXCvSqQMn9d65g6Ew-_7-26" value="" style="rounded=0;whiteSpace=wrap;html=1;" vertex="1" parent="1">
          <mxGeometry x="50" y="470" width="730" height="60" as="geometry" />
        </mxCell>
        <mxCell id="rXCvSqQMn9d65g6Ew-_7-36" style="edgeStyle=orthogonalEdgeStyle;rounded=0;orthogonalLoop=1;jettySize=auto;html=1;exitX=0.5;exitY=1;exitDx=0;exitDy=0;" edge="1" parent="1" source="rXCvSqQMn9d65g6Ew-_7-27">
          <mxGeometry relative="1" as="geometry">
            <mxPoint x="420" y="690" as="targetPoint" />
          </mxGeometry>
        </mxCell>
        <mxCell id="rXCvSqQMn9d65g6Ew-_7-27" value="" style="rounded=0;whiteSpace=wrap;html=1;" vertex="1" parent="1">
          <mxGeometry x="40" y="460" width="760" height="250" as="geometry" />
        </mxCell>
        <mxCell id="rXCvSqQMn9d65g6Ew-_7-28" value="" style="rounded=0;whiteSpace=wrap;html=1;" vertex="1" parent="1">
          <mxGeometry x="260" y="360" width="520" height="60" as="geometry" />
        </mxCell>
        <mxCell id="rXCvSqQMn9d65g6Ew-_7-29" value="Text" style="text;html=1;align=center;verticalAlign=middle;whiteSpace=wrap;rounded=0;" vertex="1" parent="1">
          <mxGeometry x="70" y="515" width="60" height="30" as="geometry" />
        </mxCell>
        <mxCell id="rXCvSqQMn9d65g6Ew-_7-30" value="" style="rounded=0;whiteSpace=wrap;html=1;" vertex="1" parent="1">
          <mxGeometry x="50" y="500" width="470" height="60" as="geometry" />
        </mxCell>
        <mxCell id="rXCvSqQMn9d65g6Ew-_7-31" value="" style="rounded=0;whiteSpace=wrap;html=1;" vertex="1" parent="1">
          <mxGeometry x="50" y="640" width="470" height="60" as="geometry" />
        </mxCell>
        <mxCell id="rXCvSqQMn9d65g6Ew-_7-32" value="" style="rounded=0;whiteSpace=wrap;html=1;" vertex="1" parent="1">
          <mxGeometry x="50" y="570" width="470" height="60" as="geometry" />
        </mxCell>
        <mxCell id="rXCvSqQMn9d65g6Ew-_7-34" style="edgeStyle=orthogonalEdgeStyle;rounded=0;orthogonalLoop=1;jettySize=auto;html=1;exitX=0.5;exitY=1;exitDx=0;exitDy=0;" edge="1" parent="1" source="rXCvSqQMn9d65g6Ew-_7-1" target="rXCvSqQMn9d65g6Ew-_7-1">
          <mxGeometry relative="1" as="geometry" />
        </mxCell>
        <mxCell id="rXCvSqQMn9d65g6Ew-_7-35" value="About me" style="text;html=1;align=center;verticalAlign=middle;whiteSpace=wrap;rounded=0;" vertex="1" parent="1">
          <mxGeometry x="375" y="90" width="90" height="30" as="geometry" />
        </mxCell>
        <mxCell id="rXCvSqQMn9d65g6Ew-_7-37" value="Education" style="text;html=1;align=center;verticalAlign=middle;whiteSpace=wrap;rounded=0;" vertex="1" parent="1">
          <mxGeometry x="385" y="470" width="60" height="30" as="geometry" />
        </mxCell>
        <mxCell id="rXCvSqQMn9d65g6Ew-_7-38" value="School" style="text;html=1;align=center;verticalAlign=middle;whiteSpace=wrap;rounded=0;" vertex="1" parent="1">
          <mxGeometry x="60" y="515" width="60" height="30" as="geometry" />
        </mxCell>
        <mxCell id="rXCvSqQMn9d65g6Ew-_7-39" value="College" style="text;html=1;align=center;verticalAlign=middle;whiteSpace=wrap;rounded=0;" vertex="1" parent="1">
          <mxGeometry x="60" y="585" width="60" height="30" as="geometry" />
        </mxCell>
        <mxCell id="rXCvSqQMn9d65g6Ew-_7-40" value="Courses" style="text;html=1;align=center;verticalAlign=middle;whiteSpace=wrap;rounded=0;" vertex="1" parent="1">
          <mxGeometry x="60" y="655" width="60" height="30" as="geometry" />
        </mxCell>
        <mxCell id="rXCvSqQMn9d65g6Ew-_7-62" style="edgeStyle=orthogonalEdgeStyle;rounded=0;orthogonalLoop=1;jettySize=auto;html=1;exitX=1;exitY=1;exitDx=0;exitDy=0;" edge="1" parent="1">
          <mxGeometry relative="1" as="geometry">
            <mxPoint x="800" y="1120" as="targetPoint" />
            <mxPoint x="799.9999999999998" y="1110" as="sourcePoint" />
            <Array as="points">
              <mxPoint x="800" y="720" />
              <mxPoint x="800" y="720" />
            </Array>
          </mxGeometry>
        </mxCell>
        <mxCell id="rXCvSqQMn9d65g6Ew-_7-43" value="Career" style="text;html=1;align=center;verticalAlign=middle;whiteSpace=wrap;rounded=0;" vertex="1" parent="1">
          <mxGeometry x="390" y="730" width="60" height="30" as="geometry" />
        </mxCell>
        <mxCell id="rXCvSqQMn9d65g6Ew-_7-44" value="" style="rounded=0;whiteSpace=wrap;html=1;" vertex="1" parent="1">
          <mxGeometry x="50" y="770" width="360" height="320" as="geometry" />
        </mxCell>
        <mxCell id="rXCvSqQMn9d65g6Ew-_7-46" value="My CV" style="text;html=1;align=center;verticalAlign=middle;whiteSpace=wrap;rounded=0;" vertex="1" parent="1">
          <mxGeometry x="150" y="780" width="60" height="30" as="geometry" />
        </mxCell>
        <mxCell id="rXCvSqQMn9d65g6Ew-_7-48" value="" style="verticalLabelPosition=bottom;verticalAlign=top;html=1;shape=mxgraph.basic.rect;fillColor2=none;strokeWidth=1;size=20;indent=5;" vertex="1" parent="1">
          <mxGeometry x="430" y="770" width="360" height="320" as="geometry" />
        </mxCell>
        <mxCell id="rXCvSqQMn9d65g6Ew-_7-50" value="" style="rounded=0;whiteSpace=wrap;html=1;" vertex="1" parent="1">
          <mxGeometry x="450" y="810" width="320" height="60" as="geometry" />
        </mxCell>
        <mxCell id="rXCvSqQMn9d65g6Ew-_7-51" value="" style="rounded=0;whiteSpace=wrap;html=1;" vertex="1" parent="1">
          <mxGeometry x="40" y="1130" width="760" height="220" as="geometry" />
        </mxCell>
        <mxCell id="rXCvSqQMn9d65g6Ew-_7-52" value="" style="rounded=0;whiteSpace=wrap;html=1;" vertex="1" parent="1">
          <mxGeometry x="450" y="1020" width="320" height="60" as="geometry" />
        </mxCell>
        <mxCell id="rXCvSqQMn9d65g6Ew-_7-53" value="" style="rounded=0;whiteSpace=wrap;html=1;" vertex="1" parent="1">
          <mxGeometry x="450" y="950" width="320" height="60" as="geometry" />
        </mxCell>
        <mxCell id="rXCvSqQMn9d65g6Ew-_7-54" value="" style="rounded=0;whiteSpace=wrap;html=1;" vertex="1" parent="1">
          <mxGeometry x="450" y="880" width="320" height="60" as="geometry" />
        </mxCell>
        <mxCell id="rXCvSqQMn9d65g6Ew-_7-55" value="My contacts" style="text;html=1;align=center;verticalAlign=middle;whiteSpace=wrap;rounded=0;" vertex="1" parent="1">
          <mxGeometry x="540" y="780" width="80" height="30" as="geometry" />
        </mxCell>
        <mxCell id="rXCvSqQMn9d65g6Ew-_7-56" value="My email" style="text;html=1;align=center;verticalAlign=middle;whiteSpace=wrap;rounded=0;" vertex="1" parent="1">
          <mxGeometry x="460" y="815" width="60" height="30" as="geometry" />
        </mxCell>
        <mxCell id="rXCvSqQMn9d65g6Ew-_7-57" value="My linkedin" style="text;html=1;align=center;verticalAlign=middle;whiteSpace=wrap;rounded=0;" vertex="1" parent="1">
          <mxGeometry x="460" y="885" width="80" height="30" as="geometry" />
        </mxCell>
        <mxCell id="rXCvSqQMn9d65g6Ew-_7-58" value="My facebook" style="text;html=1;align=center;verticalAlign=middle;whiteSpace=wrap;rounded=0;" vertex="1" parent="1">
          <mxGeometry x="460" y="955" width="90" height="30" as="geometry" />
        </mxCell>
        <mxCell id="rXCvSqQMn9d65g6Ew-_7-59" value="My telegram" style="text;html=1;align=center;verticalAlign=middle;whiteSpace=wrap;rounded=0;" vertex="1" parent="1">
          <mxGeometry x="460" y="1025" width="80" height="30" as="geometry" />
        </mxCell>
        <mxCell id="rXCvSqQMn9d65g6Ew-_7-61" value="Container" style="swimlane;" vertex="1" parent="1">
          <mxGeometry x="70" y="810" width="310" height="270" as="geometry" />
        </mxCell>
        <mxCell id="rXCvSqQMn9d65g6Ew-_7-63" value="My hobbies" style="text;html=1;align=center;verticalAlign=middle;whiteSpace=wrap;rounded=0;" vertex="1" parent="1">
          <mxGeometry x="380" y="1139" width="80" height="30" as="geometry" />
        </mxCell>
        <mxCell id="rXCvSqQMn9d65g6Ew-_7-64" value="" style="rounded=0;whiteSpace=wrap;html=1;" vertex="1" parent="1">
          <mxGeometry x="50" y="1169" width="140" height="170" as="geometry" />
        </mxCell>
        <mxCell id="rXCvSqQMn9d65g6Ew-_7-65" value="" style="rounded=0;whiteSpace=wrap;html=1;" vertex="1" parent="1">
          <mxGeometry x="200" y="1170" width="140" height="170" as="geometry" />
        </mxCell>
        <mxCell id="rXCvSqQMn9d65g6Ew-_7-66" value="" style="rounded=0;whiteSpace=wrap;html=1;" vertex="1" parent="1">
          <mxGeometry x="350" y="1170" width="140" height="170" as="geometry" />
        </mxCell>
        <mxCell id="rXCvSqQMn9d65g6Ew-_7-67" value="" style="rounded=0;whiteSpace=wrap;html=1;" vertex="1" parent="1">
          <mxGeometry x="500" y="1170" width="140" height="170" as="geometry" />
        </mxCell>
        <mxCell id="rXCvSqQMn9d65g6Ew-_7-68" value="" style="rounded=0;whiteSpace=wrap;html=1;" vertex="1" parent="1">
          <mxGeometry x="650" y="1170" width="140" height="170" as="geometry" />
        </mxCell>
        <mxCell id="rXCvSqQMn9d65g6Ew-_7-69" value="" style="rounded=0;whiteSpace=wrap;html=1;" vertex="1" parent="1">
          <mxGeometry x="360" y="1200" width="120" height="80" as="geometry" />
        </mxCell>
        <mxCell id="rXCvSqQMn9d65g6Ew-_7-70" value="" style="rounded=0;whiteSpace=wrap;html=1;" vertex="1" parent="1">
          <mxGeometry x="40" y="1360" width="760" height="60" as="geometry" />
        </mxCell>
        <mxCell id="rXCvSqQMn9d65g6Ew-_7-72" value="" style="rounded=0;whiteSpace=wrap;html=1;" vertex="1" parent="1">
          <mxGeometry x="510" y="1200" width="120" height="80" as="geometry" />
        </mxCell>
        <mxCell id="rXCvSqQMn9d65g6Ew-_7-73" value="" style="rounded=0;whiteSpace=wrap;html=1;" vertex="1" parent="1">
          <mxGeometry x="660" y="1200" width="120" height="80" as="geometry" />
        </mxCell>
        <mxCell id="rXCvSqQMn9d65g6Ew-_7-74" value="" style="rounded=0;whiteSpace=wrap;html=1;" vertex="1" parent="1">
          <mxGeometry x="210" y="1200" width="120" height="80" as="geometry" />
        </mxCell>
        <mxCell id="rXCvSqQMn9d65g6Ew-_7-75" value="" style="rounded=0;whiteSpace=wrap;html=1;" vertex="1" parent="1">
          <mxGeometry x="60" y="1200" width="120" height="80" as="geometry" />
        </mxCell>
        <mxCell id="rXCvSqQMn9d65g6Ew-_7-78" value="Swimming" style="text;html=1;align=center;verticalAlign=middle;whiteSpace=wrap;rounded=0;" vertex="1" parent="1">
          <mxGeometry x="80" y="1170" width="60" height="30" as="geometry" />
        </mxCell>
        <mxCell id="rXCvSqQMn9d65g6Ew-_7-79" value="Cooking" style="text;html=1;align=center;verticalAlign=middle;whiteSpace=wrap;rounded=0;" vertex="1" parent="1">
          <mxGeometry x="380" y="1169" width="60" height="30" as="geometry" />
        </mxCell>
        <mxCell id="rXCvSqQMn9d65g6Ew-_7-80" value="Coding" style="text;html=1;align=center;verticalAlign=middle;whiteSpace=wrap;rounded=0;" vertex="1" parent="1">
          <mxGeometry x="230" y="1170" width="60" height="30" as="geometry" />
        </mxCell>
        <mxCell id="rXCvSqQMn9d65g6Ew-_7-81" value="Reading" style="text;html=1;align=center;verticalAlign=middle;whiteSpace=wrap;rounded=0;" vertex="1" parent="1">
          <mxGeometry x="530" y="1170" width="60" height="30" as="geometry" />
        </mxCell>
        <mxCell id="rXCvSqQMn9d65g6Ew-_7-82" value="Travelling" style="text;html=1;align=center;verticalAlign=middle;whiteSpace=wrap;rounded=0;" vertex="1" parent="1">
          <mxGeometry x="690" y="1170" width="60" height="30" as="geometry" />
        </mxCell>
        <mxCell id="rXCvSqQMn9d65g6Ew-_7-83" value="" style="endArrow=none;html=1;rounded=0;entryX=0.183;entryY=-0.015;entryDx=0;entryDy=0;entryPerimeter=0;" edge="1" parent="1" target="rXCvSqQMn9d65g6Ew-_7-69">
          <mxGeometry width="50" height="50" relative="1" as="geometry">
            <mxPoint x="380" y="1200" as="sourcePoint" />
            <mxPoint x="430" y="1150" as="targetPoint" />
          </mxGeometry>
        </mxCell>
        <mxCell id="rXCvSqQMn9d65g6Ew-_7-86" value="" style="endArrow=none;html=1;rounded=0;entryX=1;entryY=0;entryDx=0;entryDy=0;" edge="1" parent="1" target="rXCvSqQMn9d65g6Ew-_7-75">
          <mxGeometry width="50" height="50" relative="1" as="geometry">
            <mxPoint x="60" y="1280" as="sourcePoint" />
            <mxPoint x="110" y="1230" as="targetPoint" />
          </mxGeometry>
        </mxCell>
        <mxCell id="rXCvSqQMn9d65g6Ew-_7-87" value="" style="endArrow=none;html=1;rounded=0;" edge="1" parent="1" target="rXCvSqQMn9d65g6Ew-_7-74">
          <mxGeometry width="50" height="50" relative="1" as="geometry">
            <mxPoint x="210" y="1280" as="sourcePoint" />
            <mxPoint x="260" y="1230" as="targetPoint" />
          </mxGeometry>
        </mxCell>
        <mxCell id="rXCvSqQMn9d65g6Ew-_7-88" value="" style="endArrow=none;html=1;rounded=0;" edge="1" parent="1" target="rXCvSqQMn9d65g6Ew-_7-74">
          <mxGeometry width="50" height="50" relative="1" as="geometry">
            <mxPoint x="210" y="1280" as="sourcePoint" />
            <mxPoint x="260" y="1230" as="targetPoint" />
            <Array as="points">
              <mxPoint x="320" y="1210" />
            </Array>
          </mxGeometry>
        </mxCell>
        <mxCell id="rXCvSqQMn9d65g6Ew-_7-89" value="" style="endArrow=none;html=1;rounded=0;" edge="1" parent="1" target="rXCvSqQMn9d65g6Ew-_7-69">
          <mxGeometry width="50" height="50" relative="1" as="geometry">
            <mxPoint x="360" y="1280" as="sourcePoint" />
            <mxPoint x="410" y="1230" as="targetPoint" />
            <Array as="points">
              <mxPoint x="480" y="1200" />
            </Array>
          </mxGeometry>
        </mxCell>
        <mxCell id="rXCvSqQMn9d65g6Ew-_7-90" value="" style="endArrow=none;html=1;rounded=0;entryX=1;entryY=0;entryDx=0;entryDy=0;" edge="1" parent="1" target="rXCvSqQMn9d65g6Ew-_7-72">
          <mxGeometry width="50" height="50" relative="1" as="geometry">
            <mxPoint x="510" y="1280" as="sourcePoint" />
            <mxPoint x="560" y="1230" as="targetPoint" />
          </mxGeometry>
        </mxCell>
        <mxCell id="rXCvSqQMn9d65g6Ew-_7-92" value="" style="endArrow=none;html=1;rounded=0;entryX=1;entryY=0;entryDx=0;entryDy=0;" edge="1" parent="1" target="rXCvSqQMn9d65g6Ew-_7-73">
          <mxGeometry width="50" height="50" relative="1" as="geometry">
            <mxPoint x="660" y="1280" as="sourcePoint" />
            <mxPoint x="710" y="1230" as="targetPoint" />
          </mxGeometry>
        </mxCell>
        <mxCell id="rXCvSqQMn9d65g6Ew-_7-93" value="descriptions" style="text;html=1;align=center;verticalAlign=middle;whiteSpace=wrap;rounded=0;" vertex="1" parent="1">
          <mxGeometry x="60" y="1290" width="60" height="20" as="geometry" />
        </mxCell>
        <mxCell id="rXCvSqQMn9d65g6Ew-_7-94" value="descriptions" style="text;html=1;align=center;verticalAlign=middle;whiteSpace=wrap;rounded=0;" vertex="1" parent="1">
          <mxGeometry x="210" y="1290" width="60" height="20" as="geometry" />
        </mxCell>
        <mxCell id="rXCvSqQMn9d65g6Ew-_7-97" value="description" style="text;html=1;align=center;verticalAlign=middle;whiteSpace=wrap;rounded=0;" vertex="1" parent="1">
          <mxGeometry x="360" y="1290" width="60" height="30" as="geometry" />
        </mxCell>
        <mxCell id="rXCvSqQMn9d65g6Ew-_7-98" value="description" style="text;html=1;align=center;verticalAlign=middle;whiteSpace=wrap;rounded=0;" vertex="1" parent="1">
          <mxGeometry x="520" y="1290" width="60" height="30" as="geometry" />
        </mxCell>
        <mxCell id="rXCvSqQMn9d65g6Ew-_7-99" value="description" style="text;html=1;align=center;verticalAlign=middle;whiteSpace=wrap;rounded=0;" vertex="1" parent="1">
          <mxGeometry x="670" y="1290" width="60" height="30" as="geometry" />
        </mxCell>
        <mxCell id="rXCvSqQMn9d65g6Ew-_7-102" value="Personal website 2025" style="text;html=1;align=center;verticalAlign=middle;whiteSpace=wrap;rounded=0;" vertex="1" parent="1">
          <mxGeometry x="350" y="1375" width="140" height="30" as="geometry" />
        </mxCell>
        <mxCell id="rXCvSqQMn9d65g6Ew-_7-106" value="" style="shape=link;html=1;rounded=0;entryX=0;entryY=0.5;entryDx=0;entryDy=0;" edge="1" parent="1" target="rXCvSqQMn9d65g6Ew-_7-102">
          <mxGeometry width="100" relative="1" as="geometry">
            <mxPoint x="50" y="1390" as="sourcePoint" />
            <mxPoint x="150" y="1390" as="targetPoint" />
          </mxGeometry>
        </mxCell>
        <mxCell id="rXCvSqQMn9d65g6Ew-_7-107" value="" style="shape=link;html=1;rounded=0;" edge="1" parent="1">
          <mxGeometry width="100" relative="1" as="geometry">
            <mxPoint x="490" y="1390" as="sourcePoint" />
            <mxPoint x="790" y="1390" as="targetPoint" />
          </mxGeometry>
        </mxCell>
        <mxCell id="rXCvSqQMn9d65g6Ew-_7-110" value="" style="rounded=0;whiteSpace=wrap;html=1;" vertex="1" parent="1">
          <mxGeometry x="540" y="500" width="250" height="200" as="geometry" />
        </mxCell>
        <mxCell id="rXCvSqQMn9d65g6Ew-_7-112" value="" style="endArrow=none;html=1;rounded=0;entryX=1;entryY=0;entryDx=0;entryDy=0;" edge="1" parent="1" target="rXCvSqQMn9d65g6Ew-_7-110">
          <mxGeometry width="50" height="50" relative="1" as="geometry">
            <mxPoint x="540" y="700" as="sourcePoint" />
            <mxPoint x="590" y="650" as="targetPoint" />
          </mxGeometry>
        </mxCell>
        <mxCell id="rXCvSqQMn9d65g6Ew-_7-113" value="" style="endArrow=none;html=1;rounded=0;entryX=0.008;entryY=0.046;entryDx=0;entryDy=0;entryPerimeter=0;exitX=0.005;exitY=0.05;exitDx=0;exitDy=0;exitPerimeter=0;" edge="1" parent="1" source="rXCvSqQMn9d65g6Ew-_7-110" target="rXCvSqQMn9d65g6Ew-_7-110">
          <mxGeometry width="50" height="50" relative="1" as="geometry">
            <mxPoint x="540" y="550" as="sourcePoint" />
            <mxPoint x="590" y="500" as="targetPoint" />
            <Array as="points">
              <mxPoint x="790" y="700" />
            </Array>
          </mxGeometry>
        </mxCell>
        <mxCell id="rXCvSqQMn9d65g6Ew-_7-116" value="" style="endArrow=none;html=1;rounded=0;" edge="1" parent="1">
          <mxGeometry width="50" height="50" relative="1" as="geometry">
            <mxPoint x="40" y="1120" as="sourcePoint" />
            <mxPoint x="800" y="720" as="targetPoint" />
            <Array as="points">
              <mxPoint x="40" y="720" />
            </Array>
          </mxGeometry>
        </mxCell>
        <mxCell id="rXCvSqQMn9d65g6Ew-_7-118" value="" style="endArrow=none;html=1;rounded=0;" edge="1" parent="1">
          <mxGeometry width="50" height="50" relative="1" as="geometry">
            <mxPoint x="800" y="1120" as="sourcePoint" />
            <mxPoint x="40" y="1120" as="targetPoint" />
          </mxGeometry>
        </mxCell>
      </root>
    </mxGraphModel>
  </diagram>
</mxfile>
